<mxfile host="app.diagrams.net" modified="2020-10-21T03:43:58.104Z" agent="5.0 (Windows NT 10.0; Win64; x64) AppleWebKit/537.36 (KHTML, like Gecko) Chrome/86.0.4240.80 Safari/537.36 Edg/86.0.622.43" etag="ibWHXaYtbMblmgC0C6Os" version="13.8.1" type="github">
  <diagram id="DSOxyzgZLprEuV7QEDZi" name="Page-1">
    <mxGraphModel dx="1106" dy="490" grid="1" gridSize="10" guides="1" tooltips="1" connect="1" arrows="1" fold="1" page="1" pageScale="1" pageWidth="827" pageHeight="1169" math="0" shadow="0">
      <root>
        <mxCell id="0" />
        <mxCell id="1" parent="0" />
        <mxCell id="hmVvDQX9xB0W7PM2Gea8-3" value="" style="edgeStyle=orthogonalEdgeStyle;rounded=0;orthogonalLoop=1;jettySize=auto;html=1;" parent="1" source="hmVvDQX9xB0W7PM2Gea8-1" target="hmVvDQX9xB0W7PM2Gea8-2" edge="1">
          <mxGeometry relative="1" as="geometry" />
        </mxCell>
        <mxCell id="hmVvDQX9xB0W7PM2Gea8-1" value="" style="strokeWidth=2;html=1;shape=mxgraph.flowchart.terminator;whiteSpace=wrap;" parent="1" vertex="1">
          <mxGeometry x="314" y="840" width="100" height="60" as="geometry" />
        </mxCell>
        <mxCell id="hmVvDQX9xB0W7PM2Gea8-2" value="" style="shape=parallelogram;perimeter=parallelogramPerimeter;whiteSpace=wrap;html=1;fixedSize=1;strokeWidth=2;" parent="1" vertex="1">
          <mxGeometry x="304" y="980" width="120" height="60" as="geometry" />
        </mxCell>
      </root>
    </mxGraphModel>
  </diagram>
</mxfile>
